<svg width="375" height="360" viewBox="0 0 375 360" fill="none" xmlns="http://www.w3.org/2000/svg">
<path d="M185.001 310.021H77.0006C78.6011 299.621 77.6675 288.021 77.0006 283.521L66 310.021L24.5 311.021L39.5 274.021L2.50079 266.521C1.66745 264.854 0.500788 258.721 2.50079 247.521C4.50079 236.321 6.66745 219.854 7.50079 213.021L53.0008 241.521C59.0008 228.021 72.5008 216.521 83.5008 213.521C94.5008 210.521 105.001 210.521 110.001 209.021C115.001 207.521 117.501 201.521 117.501 198.021C117.501 195.221 118.167 184.521 118.501 179.521C113.501 177.521 109.001 168.021 102.501 165.021C96.0008 162.021 90.5006 166.521 81.0006 163.021C71.5006 159.521 76.5006 142.021 81.0006 134.521C85.5006 127.021 99.0006 134.521 105.001 128.021C111.001 121.521 127.501 99.5205 141.001 111.021C154.501 122.521 159.501 136.021 165.501 155.521C171.501 175.021 161.001 177.521 155.001 180.021C149.001 182.521 150.501 182.021 150.001 194.021C149.501 206.021 151.001 210.521 156.001 210.521C177.501 213.021 185.501 198.021 201.501 182.021C217.501 166.021 231.501 141.521 249.001 115.521C263.001 94.7205 284.167 60.5205 293.001 46.0205L279.001 1.52051C302.601 3.92051 347.501 13.5205 367.001 18.0205L335.001 35.5205C335.334 39.3538 336.001 48.8205 336.001 56.0205C336.001 65.0205 332.501 66.0205 327.001 69.5205C321.501 73.0205 321.501 79.0205 314.001 91.5205C306.501 104.021 287.001 135.021 276.501 153.021C266.001 171.021 254.501 185.521 240.001 203.021C225.501 220.521 197.001 249.521 192.501 255.021C188.001 260.521 188.001 259.521 187.001 271.021C186.201 280.221 185.334 300.854 185.001 310.021Z" fill="white"/>
<path fill-rule="evenodd" clip-rule="evenodd" d="M276.54 1.14649C276.54 1.80209 279.817 12.2178 283.824 24.2935L291.108 46.25L285.456 54.8279C282.348 59.5452 273.297 74.0526 265.344 87.0663C248.968 113.86 226.691 147.828 217.285 160.348C203.834 178.252 185.807 198.095 178.256 203.308C173.076 206.884 165.162 209.406 159.033 209.433C156.802 209.443 155.017 208.679 153.201 206.935C150.336 204.184 150.047 201.733 151.174 189.771L151.751 183.655L155.97 181.906C165.026 178.152 170.061 170.542 168.935 162.311C167.789 153.93 156.633 126.344 151.633 119.529C149.043 116 148.908 115.462 150.047 113.226C153.457 106.532 152.487 98.9915 147.696 94.9504C144.008 91.8398 141.18 91.9174 133.992 95.3263C121.253 101.367 106.735 112.761 100.754 121.414C98.296 124.969 98.1178 125.052 95.7051 123.791C92.503 122.116 84.2403 122.098 80.2779 123.757C75.5998 125.717 70.7762 130.423 68.4045 135.342C65.4142 141.545 65.5439 150.852 68.7963 163.323C72.8278 178.784 72.0553 183.287 63.8234 192.315C59.9795 196.532 59.15 198.054 59.15 200.898C59.15 206.911 64.0483 211.319 70.7314 211.319C79.0584 211.319 90.7863 203.853 94.7832 196.007C97.5804 190.516 97.9629 181.646 95.7666 173.208C94.0368 166.564 94.0368 166.427 95.7629 166.427C96.7314 166.427 98.6365 167.754 99.9969 169.373C101.357 170.994 104.584 173.296 107.167 174.488C109.75 175.681 113.046 177.654 114.49 178.873L117.116 181.089L116.452 191.598C115.792 202.063 115.775 202.122 112.518 205.201C109.464 208.089 108.686 208.336 100.76 208.933C83.2177 210.253 72.5787 214.419 63.8309 223.392C60.9992 226.295 57.2784 231.32 55.5617 234.556C53.7946 237.888 51.9584 240.257 51.3305 240.015C50.7194 239.781 40.8128 233.167 29.3135 225.318C8.55702 211.151 5.03587 209.118 5.03587 211.298C5.03587 211.921 3.75206 224.655 2.18181 239.595C0.612502 254.537 -0.323299 267.111 0.103083 267.538C0.529465 267.966 3.87148 268.594 7.53072 268.935C13.988 269.537 14.1989 269.636 14.741 272.351C15.0479 273.889 15.2989 276.134 15.2989 277.34C15.2989 279.493 15.4799 279.535 25.8521 279.794L36.4053 280.058L30.5358 294.087C27.3066 301.802 24.6569 308.887 24.6466 309.83C24.6047 313.863 27.0053 310.039 32.1116 297.941C35.1131 290.83 37.7105 284.871 37.885 284.696C38.0586 284.522 40.2642 285.666 42.7851 287.239C49.5802 291.478 56.839 293.691 64.0483 293.723C67.5125 293.738 70.346 293.902 70.346 294.089C70.346 294.275 69.0865 297.851 67.547 302.036C64.3702 310.674 64.2535 311.389 66.0244 311.389C66.8044 311.389 68.6816 307.48 70.8536 301.335C77.0235 283.876 77.0347 283.87 76.3732 298.529C75.8815 309.446 76 311.389 77.156 311.389C78.2476 311.389 78.6404 309.015 79.1321 299.464C79.4699 292.906 79.9952 285.28 80.2993 282.517L80.8526 277.495L92.3789 277.841C99.5714 278.058 103.998 277.836 104.152 277.253C104.289 276.738 93.5041 268.906 80.1855 259.846C66.8669 250.787 55.8155 242.908 55.6251 242.337C54.9487 240.301 61.4284 229.813 66.5431 224.665C74.7377 216.42 84.0929 212.844 100.202 211.798L109.066 211.223L116.912 222.961C121.228 229.417 125.217 234.698 125.776 234.697C126.336 234.695 128.052 232.346 129.592 229.478L132.391 224.263L132.964 235.326C133.279 241.412 133.594 251.545 133.663 257.846C133.774 267.842 133.987 269.303 135.337 269.303C136.75 269.303 136.835 267.45 136.311 248.027C135.739 226.818 135.742 226.763 137.434 230.915C138.367 233.207 139.541 235.218 140.043 235.386C140.545 235.553 144.401 230.477 148.613 224.104L156.269 212.518L162.937 211.957C172.53 211.151 179.1 207.614 188.584 198.148C195.016 191.728 196.35 190.772 196.808 192.251C199.578 201.202 208.932 213.183 217.286 218.481L221.346 221.055L217.751 225.305C215.774 227.643 207.831 236.5 200.102 244.987C188.57 257.649 186.045 260.922 186.034 263.224C186.026 264.767 185.391 276.106 184.622 288.421C183.698 303.217 183.538 311.127 184.149 311.739C184.658 312.25 185.311 312.429 185.601 312.14C185.89 311.85 186.799 300.304 187.62 286.482L189.114 261.354L202.302 246.857C242.262 202.935 264.816 175.926 273.171 161.985C275.098 158.771 276.959 156.145 277.307 156.15C277.655 156.156 280.003 156.788 282.525 157.555C285.047 158.322 287.303 158.756 287.538 158.52C288.731 157.324 286.565 155.529 282.67 154.484C280.271 153.841 278.484 153.004 278.7 152.623C278.915 152.243 287.25 138.254 297.221 121.536C307.192 104.819 318.044 86.5118 321.337 80.8536C326.304 72.3159 327.954 70.2481 331.038 68.6956C336.803 65.7935 338.244 62.0367 337.133 52.7966C336.126 44.4113 336.023 41.2979 336.718 40.171C337.589 38.7588 367.841 21.3316 371.233 20.2888C373.392 19.6248 374.482 18.7607 374.306 17.8507C374.095 16.7509 363.611 14.6456 326.454 8.24397C300.284 3.73521 278.348 0.0260777 277.706 0.000826409C277.065 -0.0234897 276.54 0.491824 276.54 1.14649ZM318.868 9.99099L356.064 16.3225L344.059 16.8986C337.455 17.2157 321.494 17.7637 308.587 18.1154L285.12 18.756L283.026 12.3955C281.875 8.8977 280.738 5.50935 280.502 4.86591C280.265 4.2234 280.432 3.68845 280.872 3.67816C281.311 3.66788 298.409 6.50818 318.868 9.99099ZM328.821 31.347C310.11 37.7562 294.395 42.8635 293.898 42.698C293.402 42.5315 291.423 37.687 289.5 31.9316L286.005 21.4663L298.767 21.3372C305.785 21.2662 320.134 20.9239 330.654 20.575C367.492 19.3555 367.719 18.0246 328.821 31.347ZM276.54 23.0646C270.177 25.4074 268.804 26.2444 269.759 27.2021C271.136 28.5815 280.272 25.5636 280.272 23.7296C280.272 22.3716 279.025 22.149 276.54 23.0646ZM248.756 40.43C245.564 43.6584 242.952 47.0253 242.952 47.9119C242.952 48.7985 243.159 49.5233 243.412 49.5233C244.219 49.5233 256.947 36.2159 256.947 35.3704C256.947 33.2802 254.066 35.059 248.756 40.43ZM318.525 38.7279C318.525 38.9636 315.481 41.542 311.76 44.4581C304.685 50.0049 301.731 52.9042 301.731 54.3033C301.731 55.6388 303.775 55.2628 305.622 53.5869C306.561 52.7358 307.335 52.4197 307.343 52.8855C307.351 53.3512 307.718 54.3023 308.159 54.9991C308.822 56.0484 309.362 56.0035 311.286 54.74C313.57 53.2399 313.633 53.268 314.763 56.2775C316.757 61.5878 317.869 63.5396 320.966 67.1674L323.98 70.696L319.656 78.1124C312.523 90.3462 276.397 150.966 275.991 151.381C275.784 151.594 274.532 151.273 273.208 150.669C269.57 149.007 268.316 150.471 271.32 152.873L273.876 154.916L269.676 161.84C264.801 169.878 252.857 185.041 237.464 202.737C231.502 209.59 225.878 216.07 224.964 217.136L223.304 219.075L218.132 215.503C209.194 209.332 200.997 198.385 199.582 190.728C199.027 187.725 199.4 186.951 203.871 181.843C210.522 174.241 226.778 152.368 235.309 139.539C241.606 130.071 243.885 127.482 243.885 129.798C243.885 130.227 246.628 133.453 249.982 136.967C254.496 141.696 256.351 143.082 257.128 142.304C257.905 141.525 256.506 139.481 251.739 134.434C248.2 130.684 244.818 127.667 244.226 127.728C243.634 127.791 245.489 124.214 248.35 119.779C251.211 115.345 261.696 98.4594 271.65 82.2564C281.604 66.0535 291.381 51.1328 293.377 49.0987C296.19 46.2331 299.164 44.6152 306.599 41.9068C315.859 38.5324 318.525 37.8217 318.525 38.7279ZM331.924 46.2079C330.364 50.7961 324.306 57.0052 321.388 57.0052C319.168 57.0052 316.467 54.4267 316.845 52.6685C317.088 51.5406 330.93 42.3267 332.696 42.1172C333.05 42.076 332.703 43.9166 331.924 46.2079ZM333.412 55.2329C331.313 60.3112 324.088 63.737 320.775 61.2231C319.066 59.9268 319.09 59.8688 321.341 59.8408C324.57 59.7996 330.301 55.708 332.23 52.0681C333.51 49.6524 333.897 49.3942 334.188 50.7662C334.388 51.7071 334.039 53.7169 333.412 55.2329ZM334.654 60.7573C333.964 63.4003 329.071 67.2927 326.438 67.2927C322.638 67.2927 323.058 65.7262 327.293 64.1054C329.529 63.2497 332.105 61.7225 333.017 60.7124C335.089 58.4164 335.263 58.4211 334.654 60.7573ZM233.019 67.0589C231.239 73.0846 230.82 79.7743 232.195 80.1961C232.693 80.3495 233.784 77.4035 234.618 73.6495C235.452 69.8964 236.454 65.6682 236.845 64.2532C237.404 62.2322 237.241 61.6813 236.081 61.6813C235.092 61.6813 234.083 63.4517 233.019 67.0589ZM231.314 96.2438C230.711 97.2211 233.018 108.277 234.695 112.453C235.272 113.887 236.211 114.893 236.782 114.69C237.986 114.262 237.934 113.642 236.056 106.105C235.287 103.019 234.417 99.3366 234.123 97.9216C233.582 95.3319 232.336 94.5875 231.314 96.2438ZM141.844 114.644C147.357 117.266 151.111 122.865 157.544 138.059C164.555 154.616 166.944 163.003 166.035 167.86C165.222 172.204 159.347 178.121 154.358 179.619C152.27 180.245 150.17 181.232 149.69 181.812C149.211 182.391 148.524 187.786 148.166 193.801L147.514 204.736L141.053 210.365C137.499 213.461 134.306 215.99 133.957 215.985C133.609 215.98 130.012 213.176 125.965 209.753L118.607 203.531L119.243 191.242L119.878 178.953L116.385 176.664C114.464 175.407 111.192 171.852 109.113 168.765L105.334 163.153L98.3361 163.107C85.3469 163.023 78.7533 157.948 78.7468 148.029C78.7421 141.383 81.6074 137.973 88.4976 136.428C92.7726 135.468 94.2318 135.533 98.2773 136.86C101.722 137.989 103.524 138.156 104.811 137.465C107.937 135.788 110.327 131.853 111.417 126.587C112.318 122.24 113.005 121.116 115.961 119.155C124.308 113.618 135.563 111.655 141.844 114.644ZM140.969 117.458C139.996 118.433 141.228 119.666 143.175 119.666C144.172 119.666 144.986 119.034 144.986 118.263C144.986 116.876 142.122 116.302 140.969 117.458ZM120.495 125.352C118.187 126.7 118.468 128.27 120.952 127.915C122.102 127.75 123.182 126.879 123.353 125.979C123.704 124.134 122.886 123.956 120.495 125.352ZM136.589 127.421C136.589 128.085 138.504 130.505 140.845 132.798C147.18 139.005 149.049 142.502 148.926 147.914C148.783 154.227 150.957 153.395 151.332 146.993C151.671 141.176 150.409 138.505 143.994 131.469C139.379 126.408 136.589 124.883 136.589 127.421ZM145.919 127.615C145.919 128.394 146.749 129.018 147.785 129.018C148.822 129.018 149.651 128.394 149.651 127.615C149.651 126.836 148.822 126.212 147.785 126.212C146.749 126.212 145.919 126.836 145.919 127.615ZM310.128 130.421C310.128 131.369 311.075 131.824 313.05 131.824C316.726 131.824 321.605 134.79 323.01 137.879C324.266 140.645 325.989 141.002 325.989 138.497C325.989 136.153 322.704 132.103 319.421 130.402C315.835 128.543 310.128 128.554 310.128 130.421ZM123.236 133.363C121.954 134.648 122.618 136.633 124.227 136.322C125.125 136.148 125.86 135.416 125.86 134.695C125.86 133.218 124.214 132.383 123.236 133.363ZM293.77 141.054C290.795 145.561 287.507 154.077 288.267 155.309C289.142 156.729 291.263 154.525 291.924 151.51C292.241 150.065 293.914 146.632 295.643 143.885C298.618 139.154 298.987 137.435 297.024 137.435C296.548 137.435 295.084 139.063 293.77 141.054ZM87.8202 144.991C85.7527 146.212 86.6932 147.991 89.0164 147.252C91.1128 146.585 97.1027 148.984 99.8868 151.606C102.072 153.664 104.202 153.251 103.317 150.941C102.632 149.15 95.9056 145.262 92.2716 144.558C90.7321 144.259 88.729 144.454 87.8202 144.991ZM316.192 154.337C314.653 155.322 310.969 156.608 308.006 157.196C302.432 158.299 300.584 159.498 303.014 160.434C306.755 161.872 320.962 156.546 320.639 153.825C320.458 152.303 319.13 152.455 316.192 154.337ZM127.259 160.858C127.259 164.171 131.36 167.363 135.614 167.363C138.347 167.363 139.388 166.975 139.388 165.96C139.388 165.004 138.423 164.552 136.356 164.543C132.784 164.526 131.657 163.89 130.166 161.05C128.786 158.425 127.259 158.324 127.259 160.858ZM284.937 179.465C284.937 185.152 285.33 189.007 285.951 189.391C287.815 190.545 288.217 188.471 287.911 179.287C287.673 172.141 287.319 170.168 286.272 170.168C285.203 170.168 284.937 172.023 284.937 179.465ZM286.803 205.585C286.803 206.032 287.453 210.135 288.247 214.701C289.633 222.67 290.747 225.446 292.039 224.152C292.583 223.606 291.007 210.387 289.922 206.409C289.475 204.766 286.803 204.06 286.803 205.585ZM124.927 212.644C128.006 215.199 130.885 217.589 131.325 217.958C132.117 218.622 126.593 230.04 125.497 230.005C124.795 229.982 112.331 211.759 112.331 210.757C112.331 210.36 113.239 209.068 114.349 207.883C116.621 205.459 115.847 205.111 124.927 212.644ZM151.619 209.342L153.793 211.107L147.218 221.042L140.642 230.977L138.242 224.911L135.84 218.844L142.046 213.245C145.459 210.165 148.52 207.631 148.848 207.612C149.176 207.594 150.423 208.372 151.619 209.342ZM47.7944 241.393C69.1779 255.876 87.0934 268.108 87.6066 268.574C88.8549 269.707 89.3756 269.92 45.155 251.204L6.43537 234.815L6.56786 230.029C6.73953 223.82 7.83674 215.06 8.44226 215.06C8.70257 215.06 26.411 226.91 47.7944 241.393ZM48.385 255.835C71.4563 265.551 89.6517 273.631 88.8176 273.792C87.4247 274.062 2.90489 265.714 2.66324 265.283C2.28351 264.606 5.46132 237.649 5.89516 237.88C6.19186 238.039 25.3128 246.119 48.385 255.835ZM291.292 247.559C290.986 256.743 291.388 258.817 293.252 257.663C293.873 257.279 294.267 253.424 294.267 247.738C294.267 240.295 294 238.44 292.932 238.44C291.885 238.44 291.53 240.413 291.292 247.559ZM284.725 281.695C281.393 290.135 281.275 294.431 284.509 289.482C286.12 287.018 290.535 275.627 290.535 273.937C290.535 273.446 289.995 273.044 289.338 273.044C288.679 273.044 286.603 276.937 284.725 281.695ZM5.44359 277.067C4.45927 279.641 5.42866 286.605 6.77312 286.605C8.48331 286.605 8.82666 276.652 7.13606 276.085C6.49415 275.87 5.73282 276.313 5.44359 277.067ZM73.9362 284.253C72.2083 289.383 71.7577 289.929 68.5481 290.795C62.269 292.489 49.5494 289.006 42.5901 283.685C40.9219 282.409 39.557 280.992 39.557 280.534C39.557 279.373 44.3087 278.994 61.1877 278.813L75.8218 278.655L73.9362 284.253ZM227.738 287.67C226.722 288.69 228.034 289.878 230.178 289.882C233.356 289.888 237.844 293.097 239.174 296.314C240.354 299.17 242.955 300.373 242.948 298.061C242.941 295.819 239.214 290.783 236.196 288.938C233.223 287.121 228.928 286.478 227.738 287.67ZM212.398 295.723C211.889 296.367 210.975 298.443 210.365 300.339C209.102 304.271 210.264 310.356 212.658 312.348C214.663 314.016 215.459 312.759 214.18 309.945C212.695 306.68 212.818 301.544 214.458 298.367C216.199 294.992 214.601 292.941 212.398 295.723ZM10.3605 301.687C8.93302 303.117 18.9955 317.935 21.3933 317.935C23.4123 317.935 23.1333 317.192 19.141 311.942C17.149 309.324 14.8287 305.813 13.9852 304.141C12.4822 301.161 11.5286 300.516 10.3605 301.687ZM265.415 309.556C258.629 315.921 257.292 318.625 262.235 315.988C265.59 314.198 274.674 305.521 274.674 304.106C274.674 301.759 272.134 303.255 265.415 309.556ZM235.483 317.363C232.571 321.027 231.897 321.414 229.19 320.981C226.032 320.476 224.835 322.161 227.597 323.224C228.874 323.715 228.859 323.974 227.47 325.513C226.003 327.138 226.004 327.287 227.478 327.854C228.442 328.226 229.848 327.71 231.11 326.522C232.664 325.057 234.647 324.514 239.217 324.298C243.885 324.079 245.331 323.671 245.551 322.51C245.792 321.244 245.095 321.078 241.128 321.461C238.539 321.71 236.421 321.732 236.421 321.51C236.421 321.286 237.47 319.678 238.753 317.935C241.359 314.395 241.641 313.259 239.915 313.259C239.271 313.259 237.277 315.105 235.483 317.363ZM32.607 328.146C32.3159 328.618 34.9153 330.877 38.3832 333.166C47.1096 338.927 48.6425 339.663 49.3899 338.45C50.1605 337.202 50.67 337.65 42.0835 332.031C34.5999 327.134 33.5064 326.686 32.607 328.146ZM204.736 339.483C198.058 342.82 196.27 344.351 197.885 345.348C198.946 346.003 214.303 338.287 214.749 336.874C215.356 334.947 212.133 335.787 204.736 339.483ZM63.245 344.289C62.3726 345.705 63.6751 346.514 71.1018 349.167C78.3932 351.772 81.9125 352.249 81.3489 350.555C80.8358 349.011 63.94 343.163 63.245 344.289ZM172.102 351.064C163.363 353.347 160.319 356.056 167.62 355.053C174.878 354.056 183.239 351.376 183.239 350.047C183.239 348.428 181.626 348.575 172.102 351.064ZM95.7648 354.643C96.1594 355.848 104.342 357.825 110.932 358.307C113.674 358.508 114.664 358.226 114.664 357.243C114.664 356.281 112.442 355.576 106.733 354.729C96.5849 353.224 95.2964 353.214 95.7648 354.643ZM138.922 356.232C132.373 356.634 130.525 357.051 130.525 358.128C130.525 359.258 131.966 359.46 138.455 359.244C147.462 358.945 149.902 358.436 149.411 356.961C148.969 355.632 148.844 355.623 138.922 356.232Z" fill="black"/>
</svg>
