<svg width="39" height="39" viewBox="0 0 39 39" fill="none" xmlns="http://www.w3.org/2000/svg">
<path id="Vector" d="M18.2323 0.451326C18.9703 -0.150442 20.0297 -0.150442 20.7676 0.451326L22.3587 1.74884C22.8596 2.1571 23.5263 2.29924 24.1499 2.13069L26.1267 1.59648C27.0447 1.34839 28.0107 1.77893 28.4399 2.62736L29.374 4.47423C29.6648 5.04897 30.2138 5.44912 30.85 5.54989L32.8816 5.87169C33.8176 6.01997 34.5223 6.80319 34.5708 7.74958L34.6777 9.83319C34.7106 10.4738 35.0481 11.0601 35.5857 11.4104L37.3238 12.5432C38.1153 13.0591 38.4394 14.0575 38.1017 14.9399L37.3539 16.8937C37.1251 17.4914 37.1955 18.1624 37.5431 18.6998L38.6783 20.4538C39.1912 21.2465 39.0817 22.2895 38.4152 22.9585L36.945 24.4342C36.4929 24.888 36.2847 25.5304 36.385 26.1631L36.7121 28.2284C36.8599 29.1627 36.3346 30.0733 35.4517 30.4134L33.5242 31.1554C32.9243 31.3865 32.4714 31.8908 32.3063 32.5121L31.7726 34.5211C31.5289 35.4387 30.6751 36.0596 29.727 36.0088L27.6793 35.8993C27.0349 35.8649 26.4133 36.1424 26.009 36.6451L24.7177 38.251C24.1212 38.9928 23.0854 39.2132 22.2384 38.7785L20.416 37.843C19.841 37.548 19.159 37.548 18.584 37.843L16.7615 38.7785C15.9146 39.2132 14.8788 38.9928 14.2823 38.251L12.991 36.6451C12.5867 36.1424 11.9651 35.8649 11.3207 35.8993L9.27302 36.0088C8.3249 36.0596 7.47108 35.4387 7.22735 34.5211L6.69358 32.5121C6.52855 31.8908 6.07572 31.3865 5.47581 31.1554L3.54829 30.4134C2.66527 30.0733 2.13999 29.1627 2.28798 28.2284L2.61505 26.1631C2.71523 25.5304 2.50712 24.888 2.05501 24.4342L0.584749 22.9585C-0.0816601 22.2895 -0.19118 21.2465 0.321761 20.4538L1.4568 18.6998C1.80454 18.1624 1.87484 17.4914 1.64606 16.8937L0.898232 14.9399C0.560496 14.0575 0.884583 13.0591 1.67621 12.5432L3.41437 11.4104C3.95186 11.0601 4.28931 10.4738 4.32218 9.83319L4.42912 7.74958C4.4777 6.80319 5.18223 6.01997 6.11836 5.87169L8.14996 5.54989C8.78618 5.44912 9.33526 5.04897 9.62597 4.47423L10.5601 2.62736C10.9893 1.77893 11.9553 1.34839 12.8733 1.59648L14.8501 2.13069C15.4738 2.29924 16.1405 2.1571 16.6411 1.74884L18.2323 0.451326Z" fill="#77EE77"/>
</svg>
