<svg width="38" height="23" viewBox="0 0 38 23" fill="none" xmlns="http://www.w3.org/2000/svg">
<path fill-rule="evenodd" clip-rule="evenodd" d="M27.3982 21.8809C30.791 21.9641 34.2581 21.7976 37.5021 22.9781C37.6955 23.0477 37.9082 22.9463 37.9781 22.7496C38.0465 22.5528 37.9469 22.3364 37.7535 22.2653C34.4336 21.0576 30.8877 21.2089 27.4161 21.1242C27.2108 21.1181 27.0398 21.2846 27.0353 21.4934C27.0294 21.7023 27.193 21.8748 27.3982 21.8809Z" fill="#005461"/>
<path fill-rule="evenodd" clip-rule="evenodd" d="M27.0933 16.8689C28.1508 15.8788 29.3051 15.1371 30.7002 14.7695C30.8995 14.7172 31.0185 14.5106 30.968 14.3084C30.9159 14.1062 30.7121 13.9847 30.5143 14.0371C28.9972 14.4366 27.7403 15.236 26.5906 16.3118C26.4388 16.4532 26.4284 16.6928 26.5682 16.8465C26.7066 17.0001 26.9431 17.0103 27.0933 16.8689Z" fill="#005461"/>
<path fill-rule="evenodd" clip-rule="evenodd" d="M24.1517 6.05986C24.6365 4.36866 25.5915 3.04566 27.0551 2.09026C27.2276 1.97752 27.2782 1.74325 27.1666 1.56755C27.0565 1.39184 26.826 1.34069 26.6534 1.45343C25.0337 2.51129 23.9746 3.97533 23.4377 5.84784C23.3797 6.04821 23.4942 6.25857 23.6906 6.31699C23.8884 6.37556 24.0951 6.26023 24.1517 6.05986Z" fill="#005461"/>
<path fill-rule="evenodd" clip-rule="evenodd" d="M7.44069 3.76477C7.15214 4.11028 6.89332 4.48257 6.67319 4.87892C6.57502 5.05539 6.40248 5.4304 6.37571 5.75199C6.34596 6.09462 6.46048 6.38369 6.75498 6.53593C7.14617 6.73782 7.45854 6.71678 7.6995 6.59465C7.93153 6.47736 8.11298 6.24687 8.22751 5.93784C8.44616 5.34717 8.41343 4.44444 8.2989 3.92928C8.6068 3.60603 8.94444 3.31288 9.30588 3.05227C11.9981 1.11136 15.9471 1.82704 18.9859 4.7291C20.0494 5.74519 20.561 7.87905 20.8273 10.1814C21.2423 13.7661 21.0058 17.7699 20.973 18.9429C20.9656 19.2326 20.9924 19.4045 21.0072 19.4389C21.0771 19.6078 21.2006 19.6516 21.2869 19.6683C21.4118 19.691 21.5115 19.6668 21.5918 19.6244C21.7004 19.5663 21.7896 19.464 21.8313 19.3061C21.8536 19.219 21.8595 19.0976 21.8565 18.9682C21.8536 18.8785 21.8357 18.7804 21.8536 18.7161C21.9696 18.3041 22.1094 17.9019 22.2462 17.4967C22.7029 16.1348 23.2934 14.8586 23.9493 13.5839C26.0332 9.53348 28.0486 5.25379 31.4651 2.16785C31.6183 2.02938 31.6332 1.78996 31.4964 1.63378C31.361 1.4776 31.126 1.46337 30.9713 1.602C27.4863 4.74892 25.4159 9.10232 23.2904 13.2329C22.7326 14.3173 22.2209 15.4031 21.7955 16.5389C21.8387 14.5298 21.8223 11.7486 21.4609 9.28786C21.1396 7.09936 20.5283 5.16526 19.4945 4.17747C16.1658 0.998311 11.824 0.308667 8.87602 2.43497C8.56069 2.66258 8.26025 2.9129 7.98062 3.1844C6.43819 0.350591 3.13615 -0.785209 0.217879 0.570176C0.0304672 0.656892 -0.0513382 0.88148 0.0334435 1.07141C0.119713 1.26134 0.339839 1.34518 0.527252 1.25847C3.15697 0.037168 6.13922 1.1271 7.44069 3.76477ZM7.65636 4.71351C7.53588 4.88664 7.42432 5.06613 7.3202 5.25167C7.26517 5.35125 7.16997 5.5427 7.12981 5.73005C7.12089 5.77394 7.11941 5.84265 7.11941 5.87443C7.22204 5.92588 7.30235 5.95071 7.36779 5.91726C7.4496 5.8761 7.49126 5.77924 7.53142 5.67103C7.63256 5.39953 7.66528 5.03964 7.65636 4.71351Z" fill="#005461"/>
</svg>
