<svg width="39" height="39" viewBox="0 0 39 39" fill="none" xmlns="http://www.w3.org/2000/svg">
<path d="M18.2323 0.451326C18.9703 -0.150442 20.0297 -0.150442 20.7676 0.451326L22.3587 1.74884C22.8596 2.1571 23.5263 2.29924 24.1499 2.13069L26.1267 1.59648C27.0447 1.34839 28.0107 1.77893 28.4399 2.62736L29.374 4.47423C29.6648 5.04897 30.2138 5.44912 30.85 5.54989L32.8816 5.87169C33.8176 6.01997 34.5223 6.80319 34.5708 7.74958L34.6777 9.83319C34.7106 10.4738 35.0481 11.0601 35.5857 11.4104L37.3238 12.5432C38.1153 13.0591 38.4394 14.0575 38.1017 14.9399L37.3539 16.8937C37.1251 17.4914 37.1955 18.1624 37.5431 18.6998L38.6783 20.4538C39.1912 21.2465 39.0817 22.2895 38.4152 22.9585L36.945 24.4342C36.4929 24.888 36.2847 25.5304 36.385 26.1631L36.7121 28.2284C36.8599 29.1627 36.3346 30.0733 35.4517 30.4134L33.5242 31.1554C32.9243 31.3865 32.4714 31.8908 32.3063 32.5121L31.7726 34.5211C31.5289 35.4387 30.6751 36.0596 29.727 36.0088L27.6793 35.8993C27.0349 35.8649 26.4133 36.1424 26.009 36.6451L24.7177 38.251C24.1212 38.9928 23.0854 39.2132 22.2384 38.7785L20.416 37.843C19.841 37.548 19.159 37.548 18.584 37.843L16.7615 38.7785C15.9146 39.2132 14.8788 38.9928 14.2823 38.251L12.991 36.6451C12.5867 36.1424 11.9651 35.8649 11.3207 35.8993L9.27302 36.0088C8.3249 36.0596 7.47108 35.4387 7.22735 34.5211L6.69358 32.5121C6.52855 31.8908 6.07572 31.3865 5.47581 31.1554L3.54829 30.4134C2.66527 30.0733 2.13999 29.1627 2.28798 28.2284L2.61505 26.1631C2.71523 25.5304 2.50712 24.888 2.05501 24.4342L0.584749 22.9585C-0.0816601 22.2895 -0.19118 21.2465 0.321761 20.4538L1.4568 18.6998C1.80454 18.1624 1.87484 17.4914 1.64606 16.8937L0.898232 14.9399C0.560496 14.0575 0.884583 13.0591 1.67621 12.5432L3.41437 11.4104C3.95186 11.0601 4.28931 10.4738 4.32218 9.83319L4.42912 7.74958C4.4777 6.80319 5.18223 6.01997 6.11836 5.87169L8.14996 5.54989C8.78618 5.44912 9.33526 5.04897 9.62597 4.47423L10.5601 2.62736C10.9893 1.77893 11.9553 1.34839 12.8733 1.59648L14.8501 2.13069C15.4738 2.29924 16.1405 2.1571 16.6411 1.74884L18.2323 0.451326Z" fill="#77EE77"/>
<path d="M10.0059 28.1748C11.1365 27.5221 11.4831 26.1933 10.8207 25.046C10.1584 23.8988 8.83428 23.5346 7.70375 24.1873C6.56765 24.8432 6.22101 26.172 6.88337 27.3193C7.54573 28.4665 8.86983 28.8307 10.0059 28.1748ZM9.63059 27.5376C8.92332 27.9459 8.07421 27.6713 7.62406 26.8916C7.17392 26.112 7.35745 25.2337 8.06473 24.8254C8.77757 24.4138 9.6299 24.694 10.08 25.4737C10.5302 26.2533 10.3434 27.126 9.63059 27.5376ZM12.4545 26.7017L13.1395 26.3062L12.2553 24.7747C12.0174 24.3626 12.1111 23.9075 12.4953 23.6856C12.8462 23.4831 13.2344 23.6154 13.4563 23.9996L14.3759 25.5924L15.0609 25.1969L14.0577 23.4593C13.6783 22.8022 13.0025 22.5834 12.3676 22.95C11.9667 23.1815 11.7489 23.5374 11.7698 23.9337L11.519 23.4994L10.834 23.8948L12.4545 26.7017ZM15.7132 24.8203L16.3926 24.428L14.0776 20.4183L13.3981 20.8105L15.7132 24.8203ZM17.8579 19.8396L17.1562 20.2447L17.6227 22.5446L15.8586 20.9939L15.1624 21.3958L17.8077 23.611L18.0682 24.9754L18.7198 24.5992L18.4211 23.0787L17.8579 19.8396ZM19.5447 19.2147L20.2854 18.7871C20.0009 18.3201 20.0516 17.8677 20.4692 17.6265C20.8479 17.4079 21.2225 17.5035 21.4315 17.8655C21.5954 18.1495 21.5625 18.4655 21.3351 18.8048L20.8915 19.4767C20.6244 19.8759 20.3333 20.5935 20.6966 21.2228L21.0141 21.7598L23.7541 20.1779L23.3843 19.5374L21.3683 20.7014C21.2301 20.4619 21.388 20.1182 21.5433 19.8727L21.9711 19.2247C22.4125 18.5615 22.4776 17.9669 22.1754 17.4434C21.7542 16.7139 20.9207 16.5565 20.1188 17.0195C19.2667 17.5114 19.0296 18.3612 19.5447 19.2147ZM25.4863 19.1778L26.1657 18.7855L23.8507 14.7758L23.1713 15.168L25.4863 19.1778ZM28.2101 16.3577C28.2921 16.6668 28.1473 16.9434 27.7965 17.146C27.3621 17.3968 26.9053 17.2744 26.5947 16.8522L28.6665 15.6561C28.6399 15.5972 28.5972 15.5105 28.5426 15.4158C28.1567 14.7475 27.338 14.3069 26.3968 14.8503C25.4779 15.3808 25.4231 16.3406 25.8508 17.0813C26.2752 17.8164 27.2056 18.2446 28.1245 17.714C28.815 17.3153 29.1167 16.6288 28.8784 15.9719L28.2101 16.3577ZM26.6926 15.3626C27.0992 15.1279 27.4985 15.2537 27.7322 15.5941L26.351 16.3915C26.179 15.9264 26.3083 15.5845 26.6926 15.3626ZM30.1598 16.4795L30.8448 16.0841L29.5554 13.8508L30.3741 13.3782L30.0429 12.8046L29.2243 13.2772L29.0924 13.0489C28.951 12.8039 29.0201 12.5635 29.2596 12.4252L29.6828 12.1808L29.3484 11.6016L28.8472 11.891C28.2402 12.2415 28.0602 12.8429 28.3881 13.411L28.5393 13.6727L27.9879 13.991L28.3191 14.5646L28.8704 14.2463L30.1598 16.4795ZM30.3347 11.5074L30.8235 12.3539L30.2721 12.6722L30.6033 13.2459L31.1546 12.9275L31.8781 14.1806C32.2382 14.8043 32.845 14.9293 33.4576 14.5756L33.9087 14.3151L33.5743 13.7359L33.2011 13.9514C32.945 14.0993 32.711 14.0413 32.547 13.7573L31.8396 12.5321L32.6193 12.0819L32.2881 11.5083L31.5085 11.9584L31.0197 11.1119L30.3347 11.5074Z" fill="#2C2C2C"/>
</svg>
