<svg width="36" height="36" viewBox="0 0 36 36" fill="none" xmlns="http://www.w3.org/2000/svg">
<path fill-rule="evenodd" clip-rule="evenodd" d="M9.02884 0L0.127168 0L0.127168 8.90167C0.127168 13.4348 3.51556 17.1765 7.89774 17.7322C3.45412 18.231 7.51346e-07 22.001 3.89105e-07 26.5779L0 35.4796H8.90167C13.4348 35.4796 17.1765 32.0911 17.7322 27.709C18.231 32.1527 22.001 35.6067 26.5779 35.6067H35.4796V26.705C35.4796 22.1719 32.0911 18.4302 27.709 17.8746C32.1527 17.3758 35.6067 13.6057 35.6067 9.02884V0.127167L26.705 0.127166C22.1719 0.127166 18.4302 3.51556 17.8746 7.89774C17.3758 3.45412 13.6057 0 9.02884 0Z" fill="#6E7EFF"/>
<path d="M8.90107 30.7683C9.78125 29.8881 9.76356 28.5612 8.85241 27.65C7.94127 26.7389 6.61435 26.7212 5.73417 27.6014C4.84956 28.486 4.86725 29.8129 5.7784 30.724C6.68955 31.6352 8.01646 31.6529 8.90107 30.7683ZM8.49415 30.3613C7.87934 30.9761 6.92397 30.9319 6.24724 30.2552C5.57052 29.5785 5.52629 28.6231 6.14109 28.0083C6.75589 27.3935 7.70685 27.4421 8.38357 28.1189C9.0603 28.7956 9.10895 29.7465 8.49415 30.3613ZM10.6013 24.5388L10.1723 24.9678L11.3798 26.1753C11.769 26.5645 11.8044 27.0953 11.455 27.4447C11.141 27.7588 10.6942 27.7278 10.3404 27.374L9.05328 26.0869L8.62425 26.5159L9.99539 27.887C10.5262 28.4178 11.2162 28.4532 11.7204 27.949C12.0521 27.6172 12.1671 27.2015 12.0079 26.8034L12.4015 27.197L12.8306 26.768L10.6013 24.5388ZM10.7088 23.0337L11.4076 23.7325L10.952 24.1881L11.3236 24.5596L11.7792 24.104L12.907 25.2319C13.3626 25.6875 13.9243 25.6742 14.3755 25.2231L14.7249 24.8737L14.3534 24.5021L14.0393 24.8162C13.8226 25.0329 13.5616 25.0285 13.3228 24.7896L12.2082 23.675L12.8672 23.016L12.4957 22.6444L11.8367 23.3035L11.1378 22.6046L10.7088 23.0337ZM17.1673 22.5021C17.8351 21.8342 17.8307 20.8744 17.1628 20.2065C16.495 19.5386 15.5352 19.5342 14.8673 20.2021C14.1994 20.87 14.1994 21.8342 14.8673 22.5021C15.5352 23.17 16.4994 23.17 17.1673 22.5021ZM16.7913 22.1261C16.3667 22.5507 15.7607 22.5198 15.3052 22.0642C14.8496 21.6086 14.8186 21.0027 15.2432 20.5781C15.6634 20.1579 16.2694 20.1888 16.725 20.6444C17.1805 21.1 17.2115 21.7059 16.7913 22.1261ZM18.8978 20.7007L19.3269 20.2717L17.4692 18.414L18.1415 17.7417L17.77 17.3702L17.0977 18.0425L16.8942 17.839C16.673 17.6179 16.6686 17.3481 16.8721 17.1446L17.2082 16.8084L16.8367 16.4369L16.4696 16.804C16.0229 17.2507 16.014 17.8169 16.4519 18.2548L16.6686 18.4715L16.2131 18.9271L16.5846 19.2986L17.0402 18.843L18.8978 20.7007ZM22.2067 17.4626C22.7109 16.9584 22.7817 16.3657 22.3748 15.9588C21.3575 14.9415 20.6498 16.7815 20.0969 16.2286C19.9244 16.0561 19.9642 15.7863 20.1942 15.5563C20.3844 15.3661 20.7338 15.2202 21.0213 15.4457L21.4238 15.0432C20.9815 14.6452 20.3579 14.7115 19.8536 15.2157C19.3892 15.6802 19.3184 16.264 19.7032 16.6488C20.6542 17.5998 21.3752 15.7907 21.9678 16.3834C22.1315 16.5471 22.105 16.8478 21.8484 17.1044C21.5609 17.3919 21.2292 17.4317 20.9461 17.2017L20.5436 17.6042C21.0434 18.0421 21.6848 17.9846 22.2067 17.4626ZM20.7513 12.9911L21.4502 13.69L20.9946 14.1455L21.3661 14.5171L21.8217 14.0615L22.9496 15.1894C23.4052 15.6449 23.9669 15.6317 24.418 15.1805L24.7675 14.8311L24.3959 14.4596L24.0819 14.7736C23.8652 14.9903 23.6042 14.9859 23.3654 14.7471L22.2508 13.6325L22.9098 12.9734L22.5382 12.6019L21.8792 13.2609L21.1804 12.5621L20.7513 12.9911ZM26.1386 13.5307C26.8065 12.8628 26.8021 11.903 26.1342 11.2352C25.4663 10.5673 24.5065 10.5629 23.8386 11.2307C23.1707 11.8986 23.1707 12.8628 23.8386 13.5307C24.5065 14.1986 25.4707 14.1986 26.1386 13.5307ZM25.7626 13.1548C25.338 13.5794 24.7321 13.5484 24.2765 13.0928C23.8209 12.6373 23.79 12.0313 24.2146 11.6067C24.6348 11.1865 25.2407 11.2175 25.6963 11.673C26.1519 12.1286 26.1828 12.7346 25.7626 13.1548ZM28.6817 10.9876C29.2478 10.4215 29.3274 9.70496 28.9294 9.16535L28.5048 9.58996C28.6861 9.91285 28.6198 10.2977 28.3146 10.6028C27.8723 11.0451 27.3017 10.9257 26.8727 10.4967C26.4436 10.0677 26.3198 9.5015 26.7665 9.05478C27.0673 8.75401 27.5096 8.68324 27.8015 8.89555L28.2305 8.46651C27.6644 8.02421 26.9036 8.16574 26.3817 8.68766C25.6784 9.39093 25.8111 10.3286 26.4259 10.9434C27.0407 11.5582 27.9784 11.6909 28.6817 10.9876ZM31.6225 7.97611L32.1532 7.44534L29.7736 7.10919L29.84 5.30017L29.2827 5.85747L29.203 7.71515L27.3808 5.89285L26.9473 6.32631L30.1098 9.48879L30.5432 9.05533L29.7338 8.24591L29.7559 7.71073L31.6225 7.97611Z" fill="white"/>
</svg>
